<svg width="28" height="23" viewBox="0 0 28 23" fill="none" xmlns="http://www.w3.org/2000/svg">
<g id="Group">
<g id="Group_2">
<path id="Vector" d="M11.3333 10.9999C14.2789 10.9999 16.6667 8.6121 16.6667 5.66659C16.6667 2.72107 14.2789 0.333252 11.3333 0.333252C8.38781 0.333252 6 2.72107 6 5.66659C6 8.6121 8.38781 10.9999 11.3333 10.9999Z" fill="#F478B8"/>
<path id="Vector_2" d="M12.2267 12.3599C11.9334 12.3466 11.6401 12.3333 11.3334 12.3333C8.10675 12.3333 5.09341 13.2266 2.52008 14.7599C1.34675 15.4533 0.666748 16.7599 0.666748 18.1333V21.6666H13.0134C11.9601 20.1599 11.3334 18.3199 11.3334 16.3333C11.3334 14.9066 11.6667 13.5733 12.2267 12.3599Z" fill="#F478B8"/>
<path id="Vector_3" d="M25.6667 16.3333C25.6667 16.04 25.6267 15.7733 25.5867 15.4933L27.1067 14.1466L25.7734 11.84L23.84 12.4933C23.4134 12.1333 22.9334 11.8533 22.4 11.6533L22 9.66663H19.3334L18.9334 11.6533C18.4 11.8533 17.92 12.1333 17.4934 12.4933L15.56 11.84L14.2267 14.1466L15.7467 15.4933C15.7067 15.7733 15.6667 16.04 15.6667 16.3333C15.6667 16.6266 15.7067 16.8933 15.7467 17.1733L14.2267 18.52L15.56 20.8266L17.4934 20.1733C17.92 20.5333 18.4 20.8133 18.9334 21.0133L19.3334 23H22L22.4 21.0133C22.9334 20.8133 23.4134 20.5333 23.84 20.1733L25.7734 20.8266L27.1067 18.52L25.5867 17.1733C25.6267 16.8933 25.6667 16.6266 25.6667 16.3333ZM20.6667 19C19.2 19 18 17.8 18 16.3333C18 14.8666 19.2 13.6666 20.6667 13.6666C22.1334 13.6666 23.3334 14.8666 23.3334 16.3333C23.3334 17.8 22.1334 19 20.6667 19Z" fill="#F478B8"/>
</g>
</g>
</svg>
