<svg width="30" height="23" viewBox="0 0 30 23" fill="none" xmlns="http://www.w3.org/2000/svg">
<g id="Group">
<g id="Group_2">
<path id="Vector" d="M27 0.666667C25.52 0.2 23.8934 0 22.3334 0C19.7334 0 16.9334 0.533333 15 2C13.0667 0.533333 10.2667 0 7.66671 0C5.06671 0 2.26671 0.533333 0.333374 2V21.5333C0.333374 21.8667 0.666707 22.2 1.00004 22.2C1.13337 22.2 1.20004 22.1333 1.33337 22.1333C3.13337 21.2667 5.73337 20.6667 7.66671 20.6667C10.2667 20.6667 13.0667 21.2 15 22.6667C16.8 21.5333 20.0667 20.6667 22.3334 20.6667C24.5334 20.6667 26.8 21.0667 28.6667 22.0667C28.8 22.1333 28.8667 22.1333 29 22.1333C29.3334 22.1333 29.6667 21.8 29.6667 21.4667V2C28.8667 1.4 28 1 27 0.666667ZM27 18.6667C25.5334 18.2 23.9334 18 22.3334 18C20.0667 18 16.8 18.8667 15 20V4.66667C16.8 3.53333 20.0667 2.66667 22.3334 2.66667C23.9334 2.66667 25.5334 2.86667 27 3.33333V18.6667Z" fill="#0087FF"/>
<g id="Group_3">
<path id="Vector_2" d="M22.3334 8C23.5067 8 24.64 8.12 25.6667 8.34667V6.32C24.6134 6.12 23.48 6 22.3334 6C20.0667 6 18.0134 6.38667 16.3334 7.10667V9.32C17.84 8.46667 19.9334 8 22.3334 8Z" fill="#0087FF"/>
<path id="Vector_3" d="M16.3334 10.6534V12.8667C17.84 12.0134 19.9334 11.5467 22.3334 11.5467C23.5067 11.5467 24.64 11.6667 25.6667 11.8934V9.86669C24.6134 9.66669 23.48 9.54669 22.3334 9.54669C20.0667 9.54669 18.0134 9.94669 16.3334 10.6534Z" fill="#0087FF"/>
<path id="Vector_4" d="M22.3334 13.1066C20.0667 13.1066 18.0134 13.4933 16.3334 14.2133V16.4266C17.84 15.5733 19.9334 15.1066 22.3334 15.1066C23.5067 15.1066 24.64 15.2266 25.6667 15.4533V13.4266C24.6134 13.2133 23.48 13.1066 22.3334 13.1066Z" fill="#0087FF"/>
</g>
</g>
</g>
</svg>
