<svg width="19" height="19" viewBox="0 0 19 19" fill="none" xmlns="http://www.w3.org/2000/svg">
<g id="Sunny" clip-path="url(#clip0_228_304)">
<path id="Vector" d="M8.31606 3.26879V1.75936C8.31606 1.34426 8.65568 1.00464 9.07078 1.00464C9.48587 1.00464 9.82549 1.34426 9.82549 1.75936V3.26879C9.82549 3.68388 9.48587 4.02351 9.07078 4.02351C8.65568 4.02351 8.31606 3.68388 8.31606 3.26879ZM13.8708 5.57068L14.9349 4.49898C15.2293 4.20464 15.2293 3.72917 14.9349 3.43483C14.6406 3.14049 14.1651 3.14049 13.8708 3.43483L12.8066 4.50653C12.5123 4.80086 12.5123 5.27634 12.8066 5.57068C13.101 5.86502 13.5764 5.86502 13.8708 5.57068ZM16.6179 8.55181H15.1085C14.6934 8.55181 14.3538 8.89143 14.3538 9.30653C14.3538 9.72162 14.6934 10.0612 15.1085 10.0612H16.6179C17.033 10.0612 17.3727 9.72162 17.3727 9.30653C17.3727 8.89143 17.033 8.55181 16.6179 8.55181ZM9.07078 14.5895C8.65568 14.5895 8.31606 14.9292 8.31606 15.3443V16.8537C8.31606 17.2688 8.65568 17.6084 9.07078 17.6084C9.48587 17.6084 9.82549 17.2688 9.82549 16.8537V15.3443C9.82549 14.9292 9.48587 14.5895 9.07078 14.5895ZM4.27078 5.57068L3.19908 4.50653C2.90474 4.21219 2.90474 3.72917 3.19908 3.44237C3.49342 3.15558 3.97644 3.14803 4.26323 3.44237L5.32738 4.50653C5.62172 4.80086 5.62172 5.28388 5.32738 5.57068C5.03304 5.85747 4.55757 5.86502 4.27078 5.57068ZM12.8066 13.0424C12.5123 13.3367 12.5123 13.8197 12.8066 14.1065L13.8708 15.1707C14.1651 15.465 14.6481 15.465 14.9349 15.1707C15.2293 14.8763 15.2293 14.3933 14.9349 14.1065L13.8708 13.0424C13.584 12.748 13.101 12.748 12.8066 13.0424ZM1.52361 10.0612H3.03304C3.44814 10.0612 3.78776 9.72162 3.78776 9.30653C3.78776 8.89143 3.44814 8.55181 3.03304 8.55181H1.52361C1.10851 8.55181 0.76889 8.89143 0.76889 9.30653C0.76889 9.72162 1.10851 10.0612 1.52361 10.0612ZM4.27078 15.1782L5.33493 14.1141C5.62927 13.8197 5.62927 13.3367 5.33493 13.0499C5.04059 12.7631 4.55757 12.7556 4.27078 13.0499L3.20663 14.1141C2.91229 14.4084 2.91229 14.8914 3.20663 15.1782C3.49342 15.4726 3.97644 15.4726 4.27078 15.1782ZM9.07078 4.77822C6.57266 4.77822 4.54247 6.80841 4.54247 9.30653C4.54247 11.8046 6.57266 13.8348 9.07078 13.8348C11.5689 13.8348 13.5991 11.8046 13.5991 9.30653C13.5991 6.80841 11.5689 4.77822 9.07078 4.77822Z" fill="#FFD332"/>
</g>
<defs>
<clipPath id="clip0_228_304">
<rect width="18.1132" height="18.1132" fill="white" transform="translate(0.0141754 0.25)"/>
</clipPath>
</defs>
</svg>
